<svg width="21" height="20" viewBox="0 0 21 20" fill="none" xmlns="http://www.w3.org/2000/svg">
<path d="M0 5C0 2.23858 2.23858 0 5 0H16C18.7614 0 21 2.23858 21 5V15C21 17.7614 18.7614 20 16 20H5C2.23858 20 0 17.7614 0 15V5Z" fill="white"/>
<path d="M14 5.28006L13.929 5.4441C13.733 5.34408 13.5233 5.29607 13.3018 5.29607C12.7228 5.29607 12.0843 5.62414 11.457 6.16359C10.0634 7.53523 8.85444 10.1978 8.58744 12.7244C8.60734 13.2478 8.63006 13.688 8.64426 14C8.46532 13.94 8.26982 13.908 8.05965 13.908C7.84947 13.908 7.6568 13.94 7.4807 14C7.50344 13.6039 7.52898 13.1805 7.55172 12.7204C7.11716 8.9382 4.6878 5.42809 2.70675 5.42809C2.48805 5.42809 2.25562 5.4601 2.04544 5.56012L2 5.39609C2.53349 5.14803 3.05562 5.05201 3.54414 5.05201C5.86839 5.05201 7.63408 7.55457 8.19029 11.3688C8.78342 7.75062 10.7815 5 12.8729 5C13.2445 5 13.6279 5.10002 13.9995 5.28006H14Z" fill="#17293B"/>
<path d="M18 6.28006L17.929 6.4441C17.733 6.34408 17.5233 6.29607 17.3018 6.29607C16.7228 6.29607 16.0843 6.62414 15.457 7.16359C14.0634 8.53523 12.8544 11.1978 12.5874 13.7244C12.6073 14.2478 12.6301 14.688 12.6443 15C12.4653 14.94 12.2698 14.908 12.0596 14.908C11.8495 14.908 11.6568 14.94 11.4807 15C11.5034 14.6039 11.529 14.1805 11.5517 13.7204C11.1172 9.9382 8.6878 6.42809 6.70675 6.42809C6.48805 6.42809 6.25562 6.4601 6.04544 6.56012L6 6.39609C6.53349 6.14803 7.05562 6.05201 7.54414 6.05201C9.86839 6.05201 11.6341 8.55457 12.1903 12.3688C12.7834 8.75062 14.7815 6 16.8729 6C17.2445 6 17.6279 6.10002 17.9995 6.28006H18Z" fill="#17293B"/>
</svg>
