<svg width="46" height="37" viewBox="0 0 46 37" fill="none" xmlns="http://www.w3.org/2000/svg">
<path d="M0 7C0 4.23858 2.23858 2 5 2H16C18.7614 2 21 4.23858 21 7V17C21 19.7614 18.7614 22 16 22H5C2.23858 22 0 19.7614 0 17V7Z" fill="url(#paint0_linear_62_8)"/>
<path d="M12.6367 14H10.6816V7C10.6816 6.86328 10.6543 6.73568 10.5996 6.61719C10.5495 6.4987 10.4788 6.39616 10.3877 6.30957C10.3011 6.21842 10.1986 6.14779 10.0801 6.09766C9.96159 6.04753 9.83398 6.02246 9.69727 6.02246C9.56055 6.02246 9.43294 6.04753 9.31445 6.09766C9.19596 6.14779 9.09115 6.21842 9 6.30957C8.91341 6.39616 8.84505 6.4987 8.79492 6.61719C8.74479 6.73568 8.71973 6.86328 8.71973 7V14H6.75781V7C6.75781 6.86328 6.73275 6.73568 6.68262 6.61719C6.63249 6.4987 6.56185 6.39616 6.4707 6.30957C6.38411 6.21842 6.28158 6.14779 6.16309 6.09766C6.0446 6.04753 5.91699 6.02246 5.78027 6.02246C5.64355 6.02246 5.51595 6.04753 5.39746 6.09766C5.27897 6.14779 5.17415 6.21842 5.08301 6.30957C4.99642 6.39616 4.92806 6.4987 4.87793 6.61719C4.8278 6.73568 4.80273 6.86328 4.80273 7V14H2.84082V7C2.84082 6.5944 2.91602 6.21387 3.06641 5.8584C3.22135 5.49837 3.43099 5.1862 3.69531 4.92188C3.96419 4.65299 4.27637 4.44336 4.63184 4.29297C4.99186 4.13802 5.37467 4.06055 5.78027 4.06055C6.14486 4.06055 6.49577 4.12663 6.83301 4.25879C7.17025 4.38639 7.47331 4.57324 7.74219 4.81934C8.01107 4.57324 8.31185 4.38639 8.64453 4.25879C8.98177 4.12663 9.33268 4.06055 9.69727 4.06055C10.1029 4.06055 10.4834 4.13802 10.8389 4.29297C11.1989 4.44336 11.5111 4.65299 11.7754 4.92188C12.0443 5.1862 12.2539 5.49837 12.4043 5.8584C12.5592 6.21387 12.6367 6.5944 12.6367 7V14Z" fill="white"/>
<path d="M17.5424 20H10.6792V10.1973H12.6411V18.0381H17.5424V20Z" fill="white"/>
<defs>
<linearGradient id="paint0_linear_62_8" x1="0" y1="12" x2="21" y2="12" gradientUnits="userSpaceOnUse">
<stop stop-color="#C75305"/>
<stop offset="0.495192" stop-color="#FE9400"/>
<stop offset="1" stop-color="#E34401"/>
</linearGradient>
</defs>
</svg>
